<svg id="ea2a1cb2-3036-41c4-a230-72e46399e7a6" data-name="Calque 1" xmlns="http://www.w3.org/2000/svg" viewBox="0 0 640 640"><path d="M625.67,21H56.3A35.32,35.32,0,0,0,21,56.33V625.7A35.32,35.32,0,0,0,56.33,661H362.88V413.5H279.75V316.63h83.13v-71.3c0-82.67,50.47-127.67,124.22-127.67,35.32,0,65.68,2.63,74.53,3.8v86.42H510.77c-40.13,0-47.89,19.06-47.89,47.05v61.7h95.93l-12.5,96.87H462.88V661H625.67A35.32,35.32,0,0,0,661,625.69V56.3A35.32,35.32,0,0,0,625.67,21Z" transform="translate(-21 -21)" style="fill:#fff"/></svg>