<svg id="a243beca-2cae-4cc5-8781-56a0a3dc553e" data-name="Layer 1" xmlns="http://www.w3.org/2000/svg" viewBox="0 0 504 504"><polygon points="219.6 202.4 219.6 294.4 304.4 248.8 219.6 202.4" style="fill:#fff"/><path d="M377.6,0H126C56.8,0,0,56.8,0,126.4V378c0,69.2,56.8,126,126,126H377.6C447.2,504,504,447.2,504,377.6V126.4C504,56.8,447.2,0,377.6,0ZM408,264.4c0,26.4-2.4,53.2-2.4,53.2s-2.8,22.4-12,32.4c-12,13.2-25.2,13.2-31.2,14-44,3.2-110,3.6-110,3.6s-82-1.2-107.2-3.6c-6.8-1.2-22.8-.8-34.8-14-9.6-10-12-32.4-12-32.4S96,290.8,96,264.4V239.6c0-26.4,2.4-53.2,2.4-53.2s2.8-22.4,12-32.4c12-13.2,25.2-13.6,31.2-14.4C186,136.4,252,136,252,136s66,.4,110,3.6c6,.8,19.6,1.2,31.6,14,9.6,10,12,32.8,12,32.8s2.4,26.8,2.4,53.2Z" style="fill:#fff"/></svg>